#!OML:ASF H:\Dans Jumps\Project 1\Capture day 1\Session 1\subject.ASF
:FULLY-SPECIFIED
:DEGREES
660
root 0.651002 17.5597 3.06507 7.36509 -0.204386 -0.584923
lowerback -2.74256 -0.256164 -0.846329
upperback 0.830583 -0.351432 1.76441
thorax 2.40691 -0.20157 2.27112
lowerneck -12.4694 0.390473 -1.76146
upperneck 16.0909 0.770694 0.630886
head 6.96512 0.31849 0.568067
rclavicle -5.41688e-015 -1.27222e-014
rhumerus -28.0153 -22.7854 -76.6384
rradius 19.4397
rwrist 41.7144
rhand -18.7978 -26.4828
rfingers 7.12502
rthumb 7.50032 -56.3298
lclavicle -5.41688e-015 -1.27222e-014
lhumerus -25.3783 2.67468 89.2452
lradius 13.3604
lwrist 0.461423
lhand -23.9996 -4.16997
lfingers 7.12502
lthumb 2.47779 25.7954
rfemur -13.0087 -2.23035 19.103
rtibia 26.3055
rfoot -17.9172 -3.49713
rtoes 4.98498
lfemur -12.1361 7.06521 -18.1907
ltibia 23.0017
lfoot -13.9425 6.20103
ltoes -5.05944
661
root 0.651791 17.5597 3.06531 7.3693 -0.204849 -0.5859
lowerback -2.73675 -0.258227 -0.847459
upperback 0.82281 -0.354248 1.77255
thorax 2.39584 -0.20291 2.28002
lowerneck -12.4276 0.407553 -1.69591
upperneck 16.0229 0.790246 0.573819
head 6.93613 0.327199 0.540219
rclavicle 1.22253e-014 -6.36111e-015
rhumerus -27.9936 -22.8137 -76.619
rradius 19.4192
rwrist 41.7674
rhand -18.8008 -26.4639
rfingers 7.12502
rthumb 7.49745 -56.311
lclavicle 1.22253e-014 -6.36111e-015
lhumerus -25.3739 2.61015 89.2774
lradius 13.3786
lwrist 0.515002
lhand -24.0051 -4.16909
lfingers 7.12502
lthumb 2.4724 25.7963
rfemur -13.0095 -2.21789 19.1012
rtibia 26.3006
rfoot -17.9178 -3.50661
rtoes 4.97947
lfemur -12.1385 7.06586 -18.1929
ltibia 22.9983
lfoot -13.9451 6.19941
ltoes -5.04309
662
root 0.652621 17.5598 3.06555 7.3751 -0.20496 -0.586628
lowerback -2.73385 -0.260341 -0.848477
upperback 0.815755 -0.357142 1.78064
thorax 2.38716 -0.204311 2.2888
lowerneck -12.392 0.423019 -1.64007
upperneck 15.9592 0.808155 0.525129
head 6.90961 0.335252 0.51658
rclavicle 5.76476e-015 -1.63003e-014
rhumerus -27.9702 -22.8386 -76.6013
rradius 19.3997
rwrist 41.8185
rhand -18.7968 -26.4551
rfingers 7.12502
rthumb 7.50133 -56.3021
lclavicle 5.76476e-015 -1.63003e-014
lhumerus -25.3637 2.54591 89.3098
lradius 13.3889
lwrist 0.562843
lhand -24.0053 -4.16235
lfingers 7.12502
lthumb 2.47227 25.8031
rfemur -13.012 -2.20785 19.0991
rtibia 26.2949
rfoot -17.9171 -3.51466
rtoes 4.96941
lfemur -12.1418 7.06434 -18.1958
ltibia 22.9936
lfoot -13.9463 6.20033
ltoes -5.02259
663
root 0.65351 17.56 3.06588 7.38105 -0.204988 -0.582996
lowerback -2.73253 -0.262386 -0.853159
upperback 0.808693 -0.359774 1.78713
thorax 2.37935 -0.205628 2.298
lowerneck -12.3659 0.43328 -1.59907
upperneck 15.9043 0.819922 0.488626
head 6.88755 0.340485 0.498823
rclavicle -1.98785e-016 -3.18055e-015
rhumerus -27.9504 -22.8638 -76.5829
rradius 19.3826
rwrist 41.8674
rhand -18.7922 -26.4463
rfingers 7.12502
rthumb 7.50573 -56.2932
lclavicle -1.98785e-016 -3.18055e-015
lhumerus -25.3522 2.48591 89.3396
lradius 13.3918
lwrist 0.600307
lhand -24.0137 -4.18773
lfingers 7.12502
lthumb 2.46414 25.7778
rfemur -13.0144 -2.20317 19.0918
rtibia 26.2894
rfoot -17.9171 -3.51793
rtoes 4.96462
lfemur -12.1434 7.06266 -18.204
ltibia 22.9858
lfoot -13.9446 6.20181
ltoes -5.01035
